<svg width="268" height="244" viewBox="0 0 268 244" fill="none" xmlns="http://www.w3.org/2000/svg">
<path fill-rule="evenodd" clip-rule="evenodd" d="M149.987 97.9729C164.446 91.6544 179.543 93.6715 192.851 100.464C207.761 108.075 220.338 121.716 227.041 135.58C229.144 140.501 230.711 145.567 231.763 150.803C233.282 158.354 233.826 166.136 233.894 174.065C233.946 174.816 233.377 175.469 232.626 175.522C231.875 175.574 231.222 175.008 231.167 174.255C230.334 167.932 229.167 161.76 227.483 155.768C225.816 149.821 223.598 144.133 220.571 138.764C214.348 126.341 202.814 114.244 189.302 107.493C178.196 101.944 165.682 100.055 153.674 105.121C155.097 108.229 156.287 111.42 157.123 114.7C158.744 121.051 159.076 127.734 157.321 134.828C156.093 139.805 153.061 146.426 148.799 150.404C145.012 153.94 140.35 155.578 135.118 153.717C124.688 150.006 122.041 141.035 124.111 130.987C126.444 119.661 135.191 107.069 142.926 101.79C141.273 98.8955 139.48 96.075 137.695 93.31C130.312 81.8799 118.795 73.4698 105.315 69.3373C92.8112 65.502 78.6218 65.3435 64.422 69.8398C52.9335 73.2887 43.3272 80.5331 35.6278 88.4095C30.2709 93.8889 25.9476 99.7328 22.5298 105.069C19.4225 109.92 16.9688 114.154 15.8691 117.793C15.8437 117.951 15.6939 118.058 15.5349 118.033C15.3759 118.007 15.2695 117.857 15.295 117.699C15.4263 113.723 16.3315 108.619 18.6061 103.036C21.159 96.7685 25.352 90.1093 30.6609 83.8784C38.597 74.5655 49.3995 66.5619 62.0349 62.3298C77.8621 57.2907 93.687 57.4803 107.639 61.7332C122.961 66.4041 136.024 75.9814 144.433 88.9524C146.339 91.89 148.236 94.8936 149.987 97.9729ZM146.617 109.024C147.715 111.518 148.636 114.069 149.3 116.69C150.595 121.8 150.878 127.175 149.458 132.879C148.681 135.997 147.017 139.999 144.625 142.975C142.821 145.22 140.617 147.057 137.834 146.069C131.779 143.926 130.837 138.446 132.031 132.613C133.862 123.65 140.467 113.638 146.617 109.024Z" fill="black"/>
<path fill-rule="evenodd" clip-rule="evenodd" d="M230.45 173.409C231.128 170.881 231.78 168.339 232.474 165.801C233.29 162.823 234.099 159.841 235.039 156.893C237.446 149.36 240.242 142.115 242.94 134.791C243.114 134.079 243.836 133.646 244.545 133.82C245.256 133.994 245.692 134.714 245.517 135.425C244.692 141.931 244.127 148.411 243.228 154.993C242.843 157.792 242.436 160.572 241.868 163.339C240.599 169.531 238.802 175.59 237.007 181.584C236.776 182.312 236.253 183.489 235.572 184.27C234.811 185.145 233.893 185.716 232.951 185.947C232.063 186.166 230.812 186.258 229.417 185.393C228.789 185.003 227.643 183.958 226.41 182.225C222.346 176.511 214.165 161.332 212.406 158.235L209.364 151.93C209.214 151.554 208.929 151.046 208.886 150.415C208.826 149.572 208.768 148.629 209.021 148.06C209.213 147.628 209.741 147.973 209.501 147.753C209.318 147.584 209.868 147.584 209.765 147.72C209.379 148.231 210.327 147.719 210.274 148.036C210.141 148.82 210.793 147.68 211.096 148.208C211.208 148.399 211.215 147.975 211.37 148.14C211.589 148.373 211.401 147.75 211.738 147.913C211.943 148.013 211.642 147.586 211.934 147.648C212.151 147.694 211.58 147.349 211.935 147.357C212.259 147.363 211.673 147.243 211.673 147.243C211.673 147.243 211.957 147.149 211.195 147.247C211.177 147.406 211.032 147.52 210.873 147.502C210.713 147.484 210.599 147.34 210.618 147.18C208.821 146.49 210.44 147.024 209.929 146.496C209.748 146.309 210.127 146.408 210.041 146.233C209.619 145.364 210.639 146.366 210.861 145.73C210.951 145.474 211.048 145.959 211.208 145.728C211.489 145.324 211.243 146.277 211.882 146.002C212.214 145.858 211.711 146.41 212.424 146.405C212.95 146.4 212.525 146.211 213.34 146.747C213.918 147.129 214.395 148.459 214.828 148.902L218.617 154.534C220.11 156.915 226.061 166.867 230.45 173.409Z" fill="black"/>
</svg>
