<svg width="1488" height="1132" viewBox="0 0 1488 1132" fill="none" xmlns="http://www.w3.org/2000/svg">
<g clip-path="url(#clip0_52_1831)">
<rect width="1488" height="1131.5" fill="#01000D"/>
<g clip-path="url(#clip1_52_1831)">
<line x1="62.387" y1="-313.875" x2="62.3869" y2="1445.38" stroke="#161616" stroke-width="0.775"/>
<line x1="186.387" y1="-313.875" x2="186.387" y2="1445.38" stroke="#161616" stroke-width="0.775"/>
<line x1="310.387" y1="-313.875" x2="310.387" y2="1445.38" stroke="#161616" stroke-width="0.775"/>
<line x1="434.387" y1="-313.875" x2="434.387" y2="1445.38" stroke="#161616" stroke-width="0.775"/>
<line x1="558.387" y1="-313.875" x2="558.387" y2="1445.38" stroke="#161616" stroke-width="0.775"/>
<line x1="682.387" y1="-313.875" x2="682.387" y2="1445.38" stroke="#161616" stroke-width="0.775"/>
<line x1="806.387" y1="-313.875" x2="806.387" y2="1445.38" stroke="#161616" stroke-width="0.775"/>
<line x1="930.387" y1="-313.875" x2="930.387" y2="1445.38" stroke="#161616" stroke-width="0.775"/>
<line x1="1054.39" y1="-313.875" x2="1054.39" y2="1445.38" stroke="#161616" stroke-width="0.775"/>
<line x1="1178.39" y1="-313.875" x2="1178.39" y2="1445.38" stroke="#161616" stroke-width="0.775"/>
<line x1="1302.39" y1="-313.875" x2="1302.39" y2="1445.38" stroke="#161616" stroke-width="0.775"/>
<line x1="1426.39" y1="-313.875" x2="1426.39" y2="1445.38" stroke="#161616" stroke-width="0.775"/>
<line x1="-62" y1="7.3625" x2="1550" y2="7.3625" stroke="#161616" stroke-width="0.775"/>
<line x1="-62" y1="131.363" x2="1550" y2="131.363" stroke="#161616" stroke-width="0.775"/>
<line x1="-62" y1="255.363" x2="1550" y2="255.363" stroke="#161616" stroke-width="0.775"/>
<line x1="-62" y1="379.363" x2="1550" y2="379.362" stroke="#161616" stroke-width="0.775"/>
<line x1="-62" y1="503.363" x2="1550" y2="503.362" stroke="#161616" stroke-width="0.775"/>
<line x1="-62" y1="627.363" x2="1550" y2="627.362" stroke="#161616" stroke-width="0.775"/>
<line x1="-62" y1="751.363" x2="1550" y2="751.362" stroke="#161616" stroke-width="0.775"/>
<line x1="-62" y1="875.363" x2="1550" y2="875.362" stroke="#161616" stroke-width="0.775"/>
<line x1="-62" y1="999.363" x2="1550" y2="999.362" stroke="#161616" stroke-width="0.775"/>
<line x1="-62" y1="1123.36" x2="1550" y2="1123.36" stroke="#161616" stroke-width="0.775"/>
</g>
<rect x="-61.6125" y="-313.488" width="1611.22" height="1758.47" stroke="#161616" stroke-width="0.775"/>
</g>
<defs>
<clipPath id="clip0_52_1831">
<rect width="1488" height="1131.5" fill="white"/>
</clipPath>
<clipPath id="clip1_52_1831">
<rect x="-62" y="-313.875" width="1612" height="1759.25" fill="white"/>
</clipPath>
</defs>
</svg>
