<svg width="548" height="598" viewBox="0 0 548 598" fill="none" xmlns="http://www.w3.org/2000/svg">
<g clip-path="url(#clip0_1_2766)">
<line x1="0.131474" y1="156.744" x2="0.131461" y2="441.255" stroke="#666666" stroke-width="0.263436"/>
<line x1="42.2814" y1="5.75758e-09" x2="42.2813" y2="598" stroke="#666666" stroke-width="0.263436"/>
<line x1="84.4313" y1="5.75758e-09" x2="84.4313" y2="598" stroke="#666666" stroke-width="0.263436"/>
<line x1="126.581" y1="5.75758e-09" x2="126.581" y2="598" stroke="#666666" stroke-width="0.263436"/>
<line x1="168.731" y1="5.75758e-09" x2="168.731" y2="598" stroke="#666666" stroke-width="0.263436"/>
<line x1="210.88" y1="5.75758e-09" x2="210.88" y2="598" stroke="#666666" stroke-width="0.263436"/>
<line x1="253.03" y1="5.75758e-09" x2="253.03" y2="598" stroke="#666666" stroke-width="0.263436"/>
<line x1="295.18" y1="5.75758e-09" x2="295.18" y2="598" stroke="#666666" stroke-width="0.263436"/>
<line x1="337.33" y1="5.75758e-09" x2="337.33" y2="598" stroke="#666666" stroke-width="0.263436"/>
<line x1="379.48" y1="5.75758e-09" x2="379.48" y2="598" stroke="#666666" stroke-width="0.263436"/>
<line x1="421.63" y1="5.75758e-09" x2="421.63" y2="598" stroke="#666666" stroke-width="0.263436"/>
<line x1="463.779" y1="5.75758e-09" x2="463.779" y2="598" stroke="#666666" stroke-width="0.263436"/>
<line x1="505.929" y1="5.75758e-09" x2="505.929" y2="598" stroke="#666666" stroke-width="0.263436"/>
<line y1="24.8946" x2="547.947" y2="24.8946" stroke="#666666" stroke-width="0.263436"/>
<line y1="67.0446" x2="547.947" y2="67.0445" stroke="#666666" stroke-width="0.263436"/>
<line y1="109.194" x2="547.947" y2="109.194" stroke="#666666" stroke-width="0.263436"/>
<line y1="151.344" x2="547.947" y2="151.344" stroke="#666666" stroke-width="0.263436"/>
<line y1="193.494" x2="547.947" y2="193.494" stroke="#666666" stroke-width="0.263436"/>
<line y1="235.644" x2="547.947" y2="235.644" stroke="#666666" stroke-width="0.263436"/>
<line y1="277.794" x2="547.947" y2="277.794" stroke="#666666" stroke-width="0.263436"/>
<line y1="319.943" x2="547.947" y2="319.943" stroke="#666666" stroke-width="0.263436"/>
<line y1="362.093" x2="547.947" y2="362.093" stroke="#666666" stroke-width="0.263436"/>
<line y1="404.243" x2="547.947" y2="404.243" stroke="#666666" stroke-width="0.263436"/>
<line y1="446.393" x2="547.947" y2="446.393" stroke="#666666" stroke-width="0.263436"/>
<line y1="488.543" x2="547.947" y2="488.543" stroke="#666666" stroke-width="0.263436"/>
<line y1="530.692" x2="547.947" y2="530.692" stroke="#666666" stroke-width="0.263436"/>
<line y1="572.842" x2="547.947" y2="572.842" stroke="#666666" stroke-width="0.263436"/>
</g>
<rect x="0.131718" y="0.131718" width="547.684" height="597.737" stroke="#666666" stroke-width="0.263436"/>
<defs>
<clipPath id="clip0_1_2766">
<rect width="547.947" height="598" fill="white"/>
</clipPath>
</defs>
</svg>
