<svg width="500" height="500" viewBox="0 0 500 500" fill="none" xmlns="http://www.w3.org/2000/svg">
<mask id="mask0_2092_2920" style="mask-type:luminance" maskUnits="userSpaceOnUse" x="27" y="181" width="100" height="102">
<path d="M116.243 232.314C116.243 235.099 118.523 237.358 121.336 237.358C124.148 237.358 126.428 235.099 126.428 232.314C126.428 229.529 124.148 227.27 121.336 227.27C118.523 227.27 116.243 229.529 116.243 232.314ZM101.45 217.849C99.1358 218.282 97.5338 220.637 97.8768 222.943C98.3368 226.024 98.5528 229.123 98.5238 232.22V232.266V232.313C98.5518 235.41 98.3368 238.508 97.8768 241.59C97.5248 243.952 99.0788 246.241 101.45 246.685C103.957 247.154 106.334 245.465 106.707 242.99C107.241 239.444 107.495 235.877 107.467 232.313C107.467 232.297 107.467 232.281 107.467 232.266C107.467 232.251 107.467 232.235 107.467 232.22C107.494 228.656 107.241 225.088 106.707 221.543C106.375 219.347 104.467 217.77 102.29 217.77C102.013 217.77 101.732 217.795 101.45 217.849ZM80.1418 204.927C77.7408 205.499 76.2618 207.889 76.8388 210.266C78.5838 217.462 79.4548 224.864 79.4538 232.266C79.4558 239.669 78.5838 247.071 76.8388 254.268C76.2618 256.646 77.7408 259.035 80.1418 259.606C82.5418 260.178 84.9558 258.713 85.5328 256.336C87.4378 248.478 88.3908 240.395 88.3928 232.314H88.3938C88.3938 232.298 88.3928 232.282 88.3928 232.267C88.3928 232.252 88.3938 232.236 88.3938 232.221H88.3928C88.3908 224.138 87.4388 216.057 85.5328 208.2C85.0398 206.17 83.2078 204.805 81.1888 204.805C80.8438 204.804 80.4928 204.844 80.1418 204.927ZM54.9758 192.746C52.6938 193.682 51.6108 196.271 52.5558 198.53C57.0478 209.265 59.3258 220.6 59.3288 232.219C59.3288 232.235 59.3288 232.25 59.3288 232.265C59.3288 232.281 59.3288 232.296 59.3288 232.312C59.3248 243.931 57.0468 255.267 52.5558 266.001C51.6118 268.26 52.6948 270.85 54.9758 271.785C57.2568 272.719 59.8708 271.648 60.8168 269.388C65.7628 257.564 68.2708 245.078 68.2708 232.278V232.263V232.249C68.2708 219.449 65.7618 206.963 60.8168 195.138C60.1038 193.433 58.4388 192.405 56.6848 192.405C56.1138 192.409 55.5348 192.517 54.9758 192.746ZM31.4478 181.783C30.7488 181.787 30.0398 181.953 29.3808 182.298C27.1988 183.443 26.3648 186.122 27.5208 188.283C34.8828 202.054 38.5638 217.16 38.5608 232.267C38.5638 247.374 34.8828 262.481 27.5208 276.251C26.3648 278.412 27.1978 281.091 29.3808 282.234C30.0428 282.583 30.7528 282.748 31.4538 282.751H31.4828C33.0798 282.746 34.6238 281.891 35.4228 280.394C43.4708 265.341 47.4978 248.829 47.5028 232.315V232.268V232.222C47.4978 215.709 43.4708 199.195 35.4228 184.143C34.6238 182.649 33.0838 181.793 31.4888 181.786H31.4478V181.783Z" fill="white"/>
</mask>
<g mask="url(#mask0_2092_2920)">
<path d="M126.43 181.783H26.3672V282.751H126.43V181.783Z" fill="white"/>
</g>
<path d="M418.542 202.778C420.846 202.152 423.302 204.07 423.321 206.439C423.537 208.765 421.329 210.912 419.002 210.536C416.746 210.356 414.965 208.014 415.521 205.789C415.831 204.314 417.069 203.096 418.542 202.778Z" fill="white"/>
<path d="M163.201 203.742C174.662 203.745 186.119 203.742 197.58 203.745C197.885 205.282 197.921 206.869 197.584 208.405C187.81 208.402 178.037 208.405 168.264 208.405V230.941C176.945 230.944 185.625 230.937 194.309 230.944C194.723 232.435 194.72 234.023 194.303 235.515C185.622 235.534 176.941 235.515 168.264 235.524V260.994C166.602 261.424 164.87 261.428 163.208 260.994C163.191 241.91 163.204 222.826 163.201 203.742Z" fill="white"/>
<path d="M206.266 223.234C211.077 219.496 217.28 217.805 223.322 217.921C226.048 217.935 228.789 218.308 231.36 219.248C231.386 220.807 231 222.376 230.107 223.668C223.924 222.054 216.924 222.183 211.3 225.494C211.277 237.333 211.303 249.174 211.286 261.013C209.631 261.338 207.931 261.318 206.276 261.017C206.26 248.422 206.275 235.829 206.266 223.234Z" fill="white"/>
<path d="M237.211 223.375C241.781 219.316 248.109 217.597 254.138 217.957C258.406 218.175 262.87 219.473 265.892 222.649C268.652 225.509 269.719 229.587 269.735 233.476C269.755 241.725 269.735 249.976 269.742 258.226C264.163 261.061 257.79 262.105 251.574 262.034C247.354 261.922 242.909 261.019 239.573 258.274C234.135 253.857 233.762 244.515 238.962 239.775C241.697 237.249 245.393 236.037 249.037 235.632C254.417 235.09 259.977 235.876 264.885 238.194C264.808 234.913 265.254 231.429 263.76 228.376C262.5 225.586 259.733 223.751 256.812 223.086C250.953 221.746 244.535 223.08 239.74 226.714C238.448 226.024 237.548 224.789 237.211 223.375ZM241.623 244.038C239.405 247.448 240.298 252.491 243.513 254.975C246.139 257.045 249.613 257.562 252.865 257.566C256.95 257.528 261.067 256.933 264.881 255.428C264.878 251.282 264.878 247.139 264.881 242.993C260.138 240.551 254.661 239.567 249.361 240.12C246.46 240.47 243.339 241.515 241.623 244.038Z" fill="white"/>
<path d="M280.562 223.916C286.134 219.551 293.398 217.401 300.446 218.031C304.755 218.417 308.985 220.486 311.559 224.028C315.85 220.117 321.615 217.751 327.452 217.922C331.302 217.987 335.252 219.111 338.215 221.65C341.645 224.517 343.415 229.02 343.461 233.429C343.451 242.624 343.47 251.818 343.451 261.017C341.796 261.329 340.093 261.329 338.441 261.008C338.435 252.568 338.435 244.125 338.441 235.686C338.476 232.521 337.825 229.191 335.838 226.649C334.05 224.322 331.193 223.062 328.336 222.731C322.936 221.941 317.437 224.109 313.552 227.832C314.275 229.95 314.613 232.183 314.616 234.42C314.613 243.284 314.616 252.148 314.613 261.011C312.983 261.333 311.306 261.326 309.677 261.021C309.667 252.681 309.68 244.344 309.671 236.004C309.635 232.719 309.034 229.249 306.964 226.597C305.283 224.399 302.618 223.146 299.923 222.773C294.929 222.05 289.825 223.531 285.573 226.131C285.563 237.755 285.576 249.383 285.566 261.008C283.911 261.326 282.208 261.326 280.553 261.017C280.548 248.649 280.53 236.282 280.562 223.916Z" fill="white"/>
<path d="M363.02 220.204C367.796 217.6 373.672 217.228 378.791 218.999C382.702 220.348 386.054 223.212 387.992 226.87C390.271 231.141 390.907 236.183 390.219 240.947C379.286 240.95 368.352 240.934 357.418 240.953C357.556 245.954 359.294 251.238 363.366 254.4C367.242 257.499 372.562 257.967 377.295 257.081C380.583 256.515 383.582 254.882 386.156 252.799C387.426 253.59 388.383 254.821 388.827 256.251C385.539 259.041 381.541 261.023 377.269 261.705C371.571 262.618 365.352 261.834 360.567 258.423C356.436 255.553 353.82 250.88 352.876 245.998C351.844 240.624 352.153 234.884 354.347 229.826C356.092 225.792 359.137 222.292 363.02 220.204ZM364.737 224.443C360.481 227.014 358.071 231.88 357.605 236.726C366.807 236.726 376.011 236.73 385.216 236.723C385.181 232.818 384.091 228.707 381.234 225.905C376.965 221.647 369.753 221.392 364.737 224.443Z" fill="white"/>
<path d="M448.112 218.223C453.553 217.317 459.405 218.358 463.956 221.553C468.376 224.603 471.364 229.484 472.412 234.72C473.645 240.695 472.758 247.219 469.429 252.393C466.675 256.745 462.231 259.988 457.239 261.26C451.26 262.784 444.561 261.878 439.463 258.304C435.301 255.431 432.431 250.892 431.277 245.998C429.76 239.596 430.651 232.474 434.421 226.991C437.522 222.347 442.606 219.12 448.112 218.223ZM449.413 222.742C446.112 223.163 442.934 224.645 440.594 227.027C436.397 231.237 435.059 237.619 435.959 243.36C436.647 248.2 439.369 252.898 443.731 255.29C449.943 258.703 458.582 257.82 463.449 252.462C467.099 248.512 468.344 242.83 467.784 237.588C467.312 232.796 464.978 228.042 460.936 225.288C457.608 222.989 453.385 222.212 449.413 222.742Z" fill="white"/>
<path d="M416.942 219.046C418.546 218.618 420.256 218.609 421.865 219.02C421.891 233.02 421.882 247.02 421.872 261.019C420.242 261.334 418.568 261.318 416.942 261.006C416.936 247.021 416.936 233.034 416.942 219.046Z" fill="white"/>
<path d="M402.47 252.969C404.167 252.228 406.33 252.889 407.272 254.496C408.474 256.348 407.814 259.153 405.8 260.136C403.734 261.248 400.851 260.089 400.179 257.831C399.488 255.926 400.606 253.686 402.47 252.969Z" fill="white"/>
<path d="M250.739 283.266C251.97 283.064 253.227 283.199 254.47 283.176C254.53 291.786 254.376 300.403 254.55 309.01C251.558 310.35 248.135 310.893 244.911 310.182C242.254 309.605 239.875 307.727 238.917 305.153C237.651 301.784 237.985 297.654 240.373 294.855C242.844 291.867 247.036 290.918 250.745 291.455C250.733 288.723 250.745 285.995 250.739 283.266ZM243.774 296.331C242.084 298.006 241.762 300.612 242.251 302.852C242.573 304.402 243.556 305.829 244.98 306.558C246.751 307.464 248.865 307.404 250.742 306.863C250.742 302.826 250.739 298.792 250.742 294.756C248.363 294.155 245.555 294.515 243.774 296.331Z" fill="white"/>
<path d="M279.634 283.235C280.869 283.106 282.113 283.177 283.356 283.177C283.366 286.099 283.359 289.017 283.359 291.938C286.656 290.83 290.697 291.119 293.299 293.619C296.247 296.441 296.549 301.168 294.958 304.766C293.511 308.011 290.121 310.065 286.656 310.415C284.416 310.605 282.105 310.454 279.968 309.728C279.502 309.599 279.669 308.998 279.621 308.651C279.634 300.178 279.613 291.706 279.634 283.235ZM283.359 295.071C283.363 299.076 283.359 303.08 283.359 307.084C285.574 307.585 288.099 307.345 289.873 305.811C291.83 304.175 292.393 301.382 291.953 298.963C291.676 297.359 290.709 295.832 289.217 295.119C287.39 294.249 285.227 294.412 283.359 295.071Z" fill="white"/>
<path d="M328.574 289.527C330.955 286.479 334.863 284.983 338.659 284.899C340.558 284.896 342.544 284.844 344.331 285.599C344.347 286.767 344.344 287.936 344.331 289.102C342.03 288.2 339.478 288 337.049 288.395C334.48 288.825 332.077 290.401 330.875 292.743C329.445 295.562 329.413 299.02 330.596 301.929C331.726 304.674 334.465 306.493 337.341 306.94C339.588 307.271 341.937 307.148 344.096 306.403C344.103 307.489 344.091 308.573 344.12 309.658C342.423 310.452 340.507 310.477 338.675 310.487C335.451 310.491 332.126 309.507 329.708 307.309C327.784 305.582 326.591 303.144 326.17 300.614C325.508 296.81 326.096 292.602 328.574 289.527Z" fill="white"/>
<path d="M171.644 285.272C173.167 285.282 174.704 285.178 176.227 285.314C177.48 288.319 178.461 291.446 179.612 294.496C181.451 299.654 183.366 304.79 185.159 309.961C184.812 310.302 184.204 310.038 183.767 310.128C182.928 310.025 181.964 310.354 181.209 309.919C180.293 307.561 179.509 305.15 178.644 302.772C175.546 302.772 172.445 302.765 169.347 302.775C168.469 305.225 167.662 307.696 166.737 310.125C165.548 310.119 164.361 310.138 163.176 310.099C165.403 303.543 167.797 297.042 170.089 290.508C170.651 288.776 171.477 287.107 171.644 285.272ZM170.339 299.397H177.615C176.41 295.708 175.076 292.057 173.97 288.334C172.929 292.076 171.567 295.714 170.339 299.397Z" fill="white"/>
<path d="M223.262 285.247C224.789 285.375 226.441 285.031 227.893 285.417C230.921 293.616 233.893 301.844 236.79 310.09C235.543 310.123 234.289 310.174 233.046 310.084C232.978 310.026 232.84 309.903 232.773 309.846C231.873 307.504 231.115 305.105 230.221 302.76C227.132 302.786 224.044 302.765 220.955 302.769C220.078 305.215 219.251 307.677 218.355 310.113C217.163 310.126 215.97 310.139 214.781 310.103C216.966 303.633 219.335 297.225 221.591 290.778C222.198 288.949 223.037 287.178 223.262 285.247ZM221.941 299.397H229.224C228.006 295.704 226.666 292.05 225.579 288.319C224.528 292.059 223.169 295.708 221.941 299.397Z" fill="white"/>
<path d="M191.54 293.551C194.127 291.115 198.678 290.344 201.454 292.866C202.917 294.267 203.367 296.395 203.377 298.353C203.371 302.268 203.377 306.181 203.371 310.096C202.147 310.141 200.919 310.119 199.697 310.125C199.537 306.214 199.726 302.296 199.601 298.385C199.534 296.987 198.938 295.409 197.543 294.856C195.531 294.091 192.983 294.91 191.784 296.675C191.717 301.152 191.812 305.633 191.736 310.109C190.505 310.129 189.274 310.135 188.046 310.103C187.938 303.965 188.191 297.821 187.879 291.688C188.995 291.681 190.11 291.688 191.225 291.681C191.402 292.288 191.488 292.918 191.54 293.551Z" fill="white"/>
<path d="M265.241 291.504C267.896 290.989 270.869 291.552 272.893 293.426C274.882 295.229 275.795 297.968 275.815 300.605C275.875 303.138 275.194 305.787 273.491 307.718C270.135 311.633 263.091 311.421 260.099 307.169C257.47 303.434 257.518 297.894 260.429 294.326C261.638 292.859 263.377 291.858 265.241 291.504ZM265.553 294.692C263.611 295.289 262.413 297.218 262.114 299.144C261.748 301.445 262.039 304.08 263.682 305.861C265.218 307.578 268.098 307.831 269.895 306.378C271.424 305.17 272.003 303.148 272.051 301.272C272.087 299.468 271.749 297.537 270.576 296.107C269.4 294.654 267.304 294.169 265.553 294.692Z" fill="white"/>
<path d="M300.838 294.293C303.291 291.105 308.275 290.377 311.605 292.571C314.32 294.444 315.204 298.128 314.533 301.226C314.112 301.595 313.487 301.441 312.983 301.521C309.467 301.621 305.948 301.535 302.428 301.573C302.444 303.585 303.396 305.713 305.305 306.583C307.85 307.733 310.861 307.313 313.362 306.239C313.368 307.267 313.365 308.293 313.368 309.321C310.961 310.543 308.136 310.7 305.507 310.297C302.717 309.854 300.275 307.836 299.353 305.158C298.096 301.602 298.466 297.311 300.838 294.293ZM303.885 295.678C303.055 296.53 302.686 297.694 302.432 298.824C305.363 298.818 308.301 298.891 311.232 298.764C311.171 297.671 310.924 296.533 310.184 295.685C308.638 293.843 305.462 293.917 303.885 295.678Z" fill="white"/>
<path d="M353.323 291.52C355.835 291.019 358.636 291.452 360.67 293.084C362.74 294.717 363.812 297.352 363.967 299.939C364.157 302.709 363.51 305.68 361.605 307.781C358.156 311.725 350.938 311.361 348.081 306.894C345.6 303.06 345.764 297.5 348.849 294.042C350.022 292.754 351.614 291.861 353.323 291.52ZM353.612 294.734C351.684 295.383 350.543 297.353 350.266 299.281C349.919 301.518 350.25 304.044 351.799 305.789C353.248 307.483 355.99 307.83 357.821 306.561C359.342 305.529 360.049 303.665 360.187 301.893C360.328 299.939 360.075 297.825 358.853 296.228C357.671 294.66 355.438 294.123 353.612 294.734Z" fill="white"/>
<path d="M371.28 293.526C373.391 291.549 376.602 290.73 379.347 291.761C380.404 292.147 381.199 292.985 381.816 293.902C383.287 292.533 385.152 291.524 387.179 291.369C389.291 291.125 391.695 291.752 392.958 293.581C394.356 295.513 394.304 298.012 394.28 300.292C394.256 303.564 394.324 306.841 394.244 310.113C393.017 310.129 391.792 310.133 390.567 310.109C390.497 306.202 390.587 302.294 390.525 298.389C390.474 296.9 389.755 295.239 388.234 294.761C386.258 294.156 384.142 295.034 382.732 296.435C383.024 298.45 382.87 300.491 382.908 302.518C382.88 305.055 382.969 307.59 382.86 310.126C381.629 310.12 380.401 310.145 379.173 310.091C379.161 306.169 379.197 302.245 379.157 298.325C379.131 296.882 378.463 295.262 376.995 294.78C375.024 294.128 372.909 295.002 371.495 296.396C371.499 300.97 371.511 305.543 371.489 310.113C370.258 310.129 369.03 310.123 367.803 310.123C367.633 303.985 367.956 297.837 367.613 291.701C368.744 291.679 369.876 291.673 371.006 291.707C371.126 292.307 371.213 292.915 371.28 293.526Z" fill="white"/>
<path d="M399.254 292.85C402.452 291.648 405.996 290.829 409.39 291.661C411.903 292.253 414.076 294.12 414.969 296.553C416.171 299.787 415.791 303.695 413.658 306.462C411.206 309.624 406.937 310.849 403.074 310.418C403.084 312.879 403.068 315.338 403.08 317.797C401.847 318.016 400.596 318.122 399.352 318.217C399.27 309.765 399.459 301.303 399.254 292.85ZM403.085 295.02C403.069 299.072 403.079 303.126 403.081 307.175C405.849 307.709 409.105 306.941 410.72 304.466C412.283 301.991 412.295 298.38 410.334 296.114C408.481 294.168 405.47 294.293 403.085 295.02Z" fill="white"/>
<path d="M420.046 292.561C422.218 291.487 424.716 291.156 427.114 291.407C429.158 291.616 431.144 292.795 432.04 294.692C433.129 296.813 432.795 299.259 432.847 301.557C432.889 303.958 432.75 306.366 432.94 308.76C430.15 310.158 426.946 310.766 423.842 310.383C421.9 310.123 419.911 309.149 418.972 307.356C417.832 305.147 418.108 302.065 420.142 300.465C422.701 298.439 426.172 298.51 429.264 298.649C429.38 297.141 428.737 295.461 427.22 294.92C424.857 294.113 422.277 294.779 420.065 295.746C420.01 294.686 420.019 293.622 420.046 292.561ZM423.035 302.325C421.462 303.375 421.691 306.021 423.339 306.885C425.145 307.847 427.36 307.615 429.227 306.94C429.233 305.147 429.227 303.35 429.231 301.557C427.164 301.373 424.87 301.167 423.035 302.325Z" fill="white"/>
<path d="M441.426 293.558C443.47 291.63 446.529 290.804 449.241 291.642C450.803 292.096 452.07 293.346 452.639 294.86C453.471 296.89 453.214 299.122 453.253 301.258C453.227 304.213 453.303 307.169 453.214 310.123C451.976 310.123 450.746 310.136 449.515 310.103C449.416 306.195 449.519 302.287 449.463 298.379C449.416 296.958 448.777 295.363 447.355 294.828C445.32 294.088 443.019 294.972 441.641 296.55C441.65 301.056 441.635 305.565 441.647 310.07C440.397 310.154 439.144 310.154 437.897 310.07C437.845 303.947 438.064 297.816 437.746 291.696C438.871 291.677 440 291.677 441.127 291.696C441.258 292.311 441.355 292.931 441.426 293.558Z" fill="white"/>
<path d="M455.645 291.694C456.911 291.697 458.184 291.638 459.454 291.713C459.778 291.928 459.813 292.375 459.984 292.709C461.526 296.98 463.092 301.242 464.49 305.565C465.67 301.949 466.964 298.371 468.218 294.782C468.607 293.74 468.886 292.654 469.417 291.668C470.609 291.696 471.805 291.668 473.004 291.704C470.069 300.622 466.499 309.325 462.71 317.91C461.399 318.026 460.087 318.148 458.776 318.209C460.055 315.313 461.427 312.456 462.632 309.525C460.367 303.891 458.088 298.26 455.857 292.617C455.744 292.314 455.673 292.009 455.645 291.694Z" fill="white"/>
</svg>
