<svg width="158" height="185" viewBox="0 0 158 185" fill="none" xmlns="http://www.w3.org/2000/svg">
<g clip-path="url(#clip0_8_504)">
<path d="M100.356 13.7583C101.441 13.8947 101.848 13.7583 102.255 13.8947C127.072 28.8948 143.889 50.1677 150.263 78.8043C151.89 86.0316 151.619 93.5317 149.72 100.895C145.787 116.714 132.633 127.623 116.494 128.577C108.086 129.123 99.9491 128.168 92.6258 123.532C92.0834 119.577 91.6765 115.623 90.8629 111.941C89.5067 105.941 86.3875 101.032 80.8273 98.0317C76.7588 95.7135 72.6903 95.7135 70.5204 97.8954C67.6725 100.759 67.6725 104.577 69.4355 107.714C71.8766 112.077 74.8601 116.168 77.9793 119.986C80.0136 122.441 82.7259 124.486 85.167 126.532C82.8615 141.941 68.3506 148.487 50.9917 142.078C50.4492 139.896 49.9067 137.578 49.2287 135.396C46.5163 127.35 41.4986 121.214 33.3616 118.35C30.2424 117.259 26.852 116.85 24.1397 119.714C22.1054 121.896 22.1054 125.714 24.2753 129.532C27.8013 135.532 33.0904 139.759 38.7862 143.441C40.8205 144.668 42.8547 145.896 44.889 146.987C42.1766 170.851 20.8849 187.76 0 178.214C0.135616 179.987 -8.28544e-06 181.487 0.542457 182.305C1.22054 183.26 2.71232 183.805 3.93286 184.078C15.4602 186.26 26.1739 184.896 34.989 176.441C41.6342 170.169 46.1095 162.532 49.0931 153.805C49.4999 152.578 49.9068 151.35 50.4492 150.123C50.4492 149.987 50.7204 149.85 51.2629 149.441C52.4835 149.578 53.9752 149.578 55.467 149.85C73.6396 152.714 83.1327 147.805 91.5409 130.759C93.1683 131.305 95.0669 131.85 96.83 132.532C107.272 136.077 117.715 136.35 128.293 132.805C145.516 127.077 156.637 112.214 157.857 93.3953C158.535 83.168 156.772 73.3497 153.111 63.8042C144.16 40.7585 129.513 22.622 107.544 10.7583C106.459 10.0765 105.238 9.53102 104.153 8.84919C104.018 8.71283 103.882 8.44008 103.475 7.6219C108.086 6.53098 112.426 6.94009 116.766 7.21282C120.97 7.34918 125.309 7.75826 129.92 8.03099C129.513 4.48551 127.615 3.12187 125.309 2.30368C122.597 1.48549 119.885 0.394573 117.172 0.258208C109.849 -0.0145214 102.39 -0.150886 94.9313 0.258208C89.0998 0.667302 87.4724 3.8037 90.0491 8.57647C95.6094 18.6675 101.305 28.7584 107.001 38.8494C107.95 40.4858 109.171 41.8494 110.663 43.7586C113.24 40.7585 112.155 38.5767 111.205 36.5312C107.408 29.1675 104.018 21.8038 100.356 13.7583ZM28.2082 123.805C37.5657 125.032 43.3972 131.032 43.804 139.487C37.5657 135.396 31.5986 131.714 28.2082 123.805ZM74.0465 102.668C82.0478 104.577 85.8451 110.032 85.0314 118.35C79.878 113.986 75.4026 109.895 74.0465 102.668Z" fill="white"/>
</g>
<defs>
<clipPath id="clip0_8_504">
<rect width="158" height="185" fill="white" transform="matrix(1 0 0 -1 0 185)"/>
</clipPath>
</defs>
</svg>
