<?xml version="1.0" encoding="utf-8"?>
<!-- Generator: Adobe Illustrator 26.0.3, SVG Export Plug-In . SVG Version: 6.00 Build 0)  -->
<svg version="1.0" id="katman_1" xmlns="http://www.w3.org/2000/svg" xmlns:xlink="http://www.w3.org/1999/xlink" x="0px" y="0px"
	 viewBox="0 0 620.3 449.7" style="enable-background:new 0 0 620.3 449.7;" xml:space="preserve">
<style type="text/css">
	.st0{clip-path:url(#SVGID_00000170964519862348871120000000442015832377848493_);}
	.st1{fill-opacity:0;}
	.st2{fill:#FFFFFF;}
	.st3{fill:#FF4C46;}
	.st4{display:none;}
	.st5{display:inline;}
</style>
<g>
	<defs>
		<rect id="SVGID_1_" x="21" y="163.3" width="577" height="134.4"/>
	</defs>
	<clipPath id="SVGID_00000015315570762175878340000010576971663504749998_">
		<use xlink:href="#SVGID_1_"  style="overflow:visible;"/>
	</clipPath>
	<g style="clip-path:url(#SVGID_00000015315570762175878340000010576971663504749998_);">
		<g transform="matrix(4.877689838409424,0,0,1.0290900468826294,-7.279754638671875,-6.47625732421875)">
			<rect x="4.9" y="161.3" class="st1" width="120" height="137.9"/>
		</g>
		<g transform="matrix(1,0,0,1,0,0)">
			<g transform="matrix(1,0,0,1,172.3459930419922,148.86300659179688)">
				<path class="st2" d="M-45.4,97.4c-2.3,0.8-7.4,2-13-0.9c-0.3-0.1-0.6,0.2-0.3,0.4c1.8,1.9,5,5.3,6.9,6.9c0.4,0.3,1,0.3,1.4-0.1
					l5.4-5.9C-44.9,97.7-45.1,97.3-45.4,97.4z"/>
			</g>
			<g transform="matrix(1,0,0,1,162.6020050048828,108.33999633789062)">
				<path class="st2" d="M-14.7,113.3c-2.9-6.2-7.2-12-13.7-12.8c-1.2-0.1-2.4,0.1-3.4,0.7l-7.1,4.2c-1.8,1-4,0.9-5.6-0.4l-6.2-4.8
					c-2.1-1.6-4.4-2.8-7-3.4c-10.6-2.5-17.7,3.1-23.2,13.5c-5.2,9.9-2.3,24.2,10.5,27.6c13.5,3.6,22.4-11.4,25.9-16.3
					c0.7-1,2.1-1,2.8,0c5.5,7.5,12.9,15.5,20.9,13.9C-10.3,133.5-11.5,120.3-14.7,113.3z M-53.7,121.2c-2.6,1.7-5.9,1.3-7.9-1.6
					c-2-2.9-1.1-6.2,1.5-7.9c2.6-1.7,5.9-1.3,7.9,1.6C-50.2,116.2-51.1,119.4-53.7,121.2z M-26.1,121.7c-2.6,1.7-5.9,1.3-7.9-1.6
					c-2-2.9-1.1-6.2,1.5-7.9c2.6-1.7,5.9-1.3,7.9,1.6C-22.7,116.7-23.6,120-26.1,121.7z"/>
			</g>
			<g transform="matrix(1,0,0,1,172.5330047607422,131.24899291992188)">
				<path class="st2" d="M-51.7,102.6c-0.5-0.6-1.5-0.6-2,0l-5.6,6.7c-0.3,0.3-0.2,0.8,0.1,1c1.3,0.9,4.5,3,7.6,3
					c2.9,0,5.5-1.1,6.8-1.8c0.4-0.2,0.5-0.8,0.2-1.1L-51.7,102.6z"/>
			</g>
		</g>
		<g transform="matrix(1,0,0,1,0,0)">
			<g transform="matrix(1,0,0,1,0,0)">
				<g transform="matrix(1,0,0,1,330.0400085449219,116.3949966430664)">
					<path class="st3" d="M-145,136.4V91.6h9.9v19.5h33V91.6h9.9v44.8h-9.9v-16.9h-33v16.9H-145z"/>
				</g>
				<g transform="matrix(1,0,0,1,424.5920104980469,124.88600158691406)">
					<path class="st3" d="M-158.6,129.1c-6.6,0-11.9-1.7-15.9-5.1c-4-3.4-6-7.9-6-13.5c0-5.6,2-10.1,6-13.5c4-3.4,9.3-5.1,15.9-5.1
						c6.6,0,11.9,1.7,16,5.1c4,3.4,6,7.9,6,13.5c0,5.6-2,10.1-6,13.5C-146.7,127.4-152,129.1-158.6,129.1z M-158.6,121.4
						c3.8,0,6.9-1,9.2-3c2.3-2,3.5-4.6,3.5-7.9c0-3.3-1.2-6-3.5-8c-2.3-2-5.4-3-9.2-3c-3.8,0-6.8,1-9.2,3c-2.3,2-3.5,4.7-3.5,7.9
						c0,3.3,1.2,5.9,3.5,7.9C-165.5,120.4-162.4,121.4-158.6,121.4z"/>
				</g>
				<g transform="matrix(1,0,0,1,508.3299865722656,124.88600158691406)">
					<path class="st3" d="M-194.1,129.1c-6.6,0-11.9-1.7-15.9-5.1c-4-3.4-6-7.9-6-13.5c0-5.6,2-10.1,6-13.5c4-3.4,9.3-5.1,15.9-5.1
						c6.6,0,11.9,1.7,16,5.1c4,3.4,6,7.9,6,13.5c0,5.6-2,10.1-6,13.5C-182.1,127.4-187.4,129.1-194.1,129.1z M-194.1,121.4
						c3.8,0,6.9-1,9.2-3c2.3-2,3.5-4.6,3.5-7.9c0-3.3-1.2-6-3.5-8c-2.3-2-5.4-3-9.2-3c-3.8,0-6.8,1-9.2,3c-2.3,2-3.5,4.7-3.5,7.9
						c0,3.3,1.2,5.9,3.5,7.9C-200.9,120.4-197.8,121.4-194.1,121.4z"/>
				</g>
				<g transform="matrix(1,0,0,1,572.9630126953125,117.0009994506836)">
					<path class="st3" d="M-218.4,136.5c-4.4,0-6.9-2-8.2-3.9c-1.3-1.8-2.3-4.2-2.3-9.4V108h-5v-7.2h6.4V91h8.5v9.8h10.1v7.2h-10.1
						v13.1c-0.1,3.9,0.6,5.3,1.5,6.3c1.7,1.7,6.8,0.5,8.6-0.6v7.6C-211,135.9-214.8,136.5-218.4,136.5z"/>
				</g>
				<g transform="matrix(1,0,0,1,638.8109741210938,124.88600158691406)">
					<path class="st3" d="M-249.4,129.1c-6.2,0-12.5-0.9-18.8-2.7v-8c5.3,2,11,3,17.1,3c4.4,0,7.6-0.3,9.5-0.8
						c1.9-0.6,2.9-1.6,2.9-3c0-1.4-1.1-2.3-3.2-2.8c-2.1-0.5-4.7-0.9-7.8-1c-3.1-0.1-6.1-0.4-9.2-0.8c-3.1-0.4-5.6-1.4-7.8-2.9
						c-2.1-1.5-3.2-3.7-3.2-6.5c0-3.8,1.8-6.7,5.5-8.7c3.7-2,8.7-2.9,15-2.9c5,0,10.8,0.7,17.5,2v7.7c-5.7-1.2-11.2-1.8-16.4-1.8
						c-7.9,0-11.9,1.2-11.9,3.6c0,1.2,1.1,2.1,3.2,2.6c2.1,0.5,4.7,0.8,7.8,1c3,0.2,6.1,0.5,9.1,0.9c3.1,0.4,5.7,1.5,7.8,3
						c2.1,1.6,3.2,3.8,3.2,6.6c0,3.9-1.8,6.8-5.5,8.7C-237.9,128.1-242.9,129.1-249.4,129.1z"/>
				</g>
				<g transform="matrix(1,0,0,1,720.3090209960938,125.85600280761719)">
					<path class="st3" d="M-262.8,92v35h-10.9l1.4-14.4h-0.6c-1.6,10.4-7.4,15.5-17.2,15.5c-5-0.1-8.7-1.7-11.1-4.9
						c-2.3-3.2-3.5-8.5-3.5-16V92h9.9v14c0,5.3,0.7,9,2.2,11.3c1.5,2.2,3.9,3.4,7.3,3.4c3.8,0,6.8-1.7,9-5.2c2.2-3.5,3.4-8,3.4-13.8
						V92H-262.8z"/>
				</g>
				<g transform="matrix(1,0,0,1,780.0789794921875,112.20600128173828)">
					<path class="st3" d="M-309,102.3c-1.9,0-3.4-0.5-4.5-1.4c-1.1-1-1.6-2.4-1.6-4.2c0-1.9,0.5-3.3,1.6-4.2
						c1.1-0.9,2.6-1.4,4.5-1.4c2,0,3.5,0.5,4.6,1.4c1.1,0.9,1.6,2.3,1.6,4.2C-302.8,100.4-304.9,102.3-309,102.3z M-313.9,140.6v-35
						h9.9v35H-313.9z"/>
				</g>
				<g transform="matrix(1,0,0,1,885.8729858398438,124.88600158691406)">
					<path class="st3" d="M-353.7,129.1c-6.3,0-11.4-1.7-15.3-5.1c-3.8-3.4-5.8-7.9-5.8-13.5c0-5.6,1.9-10.1,5.8-13.5
						c3.8-3.4,8.9-5.1,15.3-5.1c6.3,0,11.3,1.5,15.2,4.4c3.8,2.9,5.8,6.8,5.9,11.5v5.7h-32.6c0.6,2.8,2,4.9,4.4,6.2
						c2.4,1.3,5.9,1.9,10.6,1.9c6.2,0,9-1,12-2.1c0.5-0.2,3.7-1.6,4.1-1.8v8c-3.5,1.4-6.6,2.3-9.2,2.7
						C-346,128.8-349.4,129.1-353.7,129.1z M-365.5,108.6l23.4-0.6c-0.1-3.1-1.1-5.3-3-6.6c-1.9-1.3-4.7-2-8.6-2
						c-3.7,0-6.5,0.7-8.4,2.1C-364,103-365.2,105.4-365.5,108.6z"/>
				</g>
				<g transform="matrix(1,0,0,1,822.0170288085938,117.0009994506836)">
					<path class="st3" d="M-323.7,136.5c-4.4,0-6.9-2-8.2-3.9c-1.3-1.8-2.3-4.2-2.3-9.4V108h-5v-7.2h6.4V91h8.5v9.8h10.1v7.2h-10.1
						v13.1c-0.1,3.9,0.6,5.3,1.5,6.3c1.7,1.7,6.8,0.5,8.6-0.6v7.6C-316.3,135.9-320.2,136.5-323.7,136.5z"/>
				</g>
			</g>
			<g transform="matrix(1,0,0,1,933.5449829101562,102.74099731445312)">
				<g transform="matrix(1,0,0,1,0,0)">
					<path class="st3" d="M-370.6,123.2c-0.9,0.9-2,1.4-3.3,1.4c-1.3,0-2.4-0.5-3.3-1.4c-0.9-0.9-1.4-2-1.4-3.3
						c0-1.3,0.5-2.4,1.4-3.3c0.9-0.9,2-1.4,3.3-1.4c1.3,0,2.4,0.5,3.3,1.4c0.9,0.9,1.4,2,1.4,3.3
						C-369.2,121.1-369.6,122.2-370.6,123.2z M-376.8,116.9c-0.8,0.8-1.2,1.8-1.2,2.9c0,1.1,0.4,2.1,1.2,2.9
						c0.8,0.8,1.7,1.2,2.9,1.2c1.1,0,2.1-0.4,2.9-1.2c0.8-0.8,1.2-1.8,1.2-2.9c0-1.1-0.4-2.1-1.2-2.9c-0.8-0.8-1.8-1.2-2.9-1.2
						C-375,115.7-376,116.1-376.8,116.9z M-374,117.2c0.6,0,1.1,0.1,1.4,0.2c0.5,0.2,0.8,0.7,0.8,1.3c0,0.5-0.2,0.8-0.5,1
						c-0.2,0.1-0.4,0.2-0.7,0.3c0.4,0.1,0.7,0.2,0.9,0.5c0.2,0.3,0.3,0.5,0.3,0.8v0.4c0,0.1,0,0.2,0,0.4c0,0.1,0,0.2,0,0.3l0,0.1
						h-0.9c0,0,0,0,0-0.1c0,0,0,0,0-0.1l0-0.2v-0.4c0-0.6-0.2-1-0.5-1.2c-0.2-0.1-0.5-0.2-1-0.2h-0.7v2h-0.9v-5.2H-374z M-373,118
						c-0.2-0.1-0.6-0.2-1.1-0.2h-0.8v1.9h0.8c0.4,0,0.7,0,0.9-0.1c0.4-0.1,0.5-0.4,0.5-0.8C-372.7,118.4-372.8,118.1-373,118z"/>
				</g>
			</g>
		</g>
		
			<g transform="matrix(0.21847420930862427,0.05528247356414795,-0.05528247356414795,0.21847420930862427,162.06900024414062,119.19000244140625)">
			<g transform="matrix(1,0,0,1,0,0)">
				<path class="st3" d="M-140.1,354.1c-43.9,10.8-85.9,50.1-111.4,99.3c-18.5,35.6-30.7,124.3-36,170.3c-2.3,19.6,6,38.9,21.8,50.7
					c36.9,27.5,109.7,69.1,223.2,41.2c104-25.5,145.2-85.1,161.4-125.4c9-22.3,7.1-47.5-5.1-68.3C93.2,486.9,53.5,427.2,4,391.5
					C-52.4,350.9-96.2,343.3-140.1,354.1z"/>
			</g>
		</g>
		
			<g transform="matrix(0.21847420930862427,0.05528247356414795,-0.05528247356414795,0.21847420930862427,158.48561096191406,110.09127044677734)">
			<g transform="matrix(1,0,0,1,0,0)">
				<path class="st2" d="M-51.2,485.3c52.9-61,97.6-31,128,7.1c22,27.4,41.7,84.3-1.9,104.7c-33.4,15.7-74.8-11.6-107.2-38.8
					c-3.3-2.8-8.3-2.3-11,1c-0.5,0.6-0.9,1.3-1.3,2.1c-10.3,25.8-33.3,101.3-96.5,100.1c-59.8-1.2-88-61-75.7-110.3
					C-199,477-154.1,442.9-51.2,485.3z"/>
			</g>
		</g>
		
			<g transform="matrix(0.21847420930862427,0.05528247356414795,-0.05528247356414795,0.21847420930862427,158.48561096191406,110.09127044677734)">
			<g transform="matrix(1,0,0,1,0,0)">
				<path class="st2" d="M-49.9,634.9c9.4,6.2,28.9,18.8,40.1,24.4c2.2,1.1,4.8,0.3,5.9-1.9L14,624c0.3-0.4,0.2-1-0.2-1.2
					c-0.3-0.2-0.8-0.2-1.1,0c-18,12.6-40.7,16.4-61.8,10.5c-0.5-0.1-1,0.3-1,0.8C-50.3,634.4-50.1,634.7-49.9,634.9z"/>
			</g>
		</g>
		
			<g transform="matrix(0.21847420930862427,0.05528247356414795,-0.05528247356414795,0.21847420930862427,158.48561096191406,110.09127044677734)">
			<g transform="matrix(1,0,0,1,0,0)">
				<path class="st2" d="M-37.8,577.9l-17.8,35.6c-0.8,1.6-0.2,3.5,1.4,4.3c0.1,0,0.2,0.1,0.3,0.1c6.8,2.7,23,8.2,36.7,4.9
					c10.3-2.9,19.8-8,27.9-15.1c1.3-1.2,1.4-3.2,0.3-4.5c-0.2-0.2-0.4-0.4-0.6-0.5l-39.6-27.2c-2.8-1.8-6.5-0.9-8.3,1.9
					C-37.6,577.7-37.7,577.8-37.8,577.9L-37.8,577.9z"/>
			</g>
		</g>
		
			<g transform="matrix(0.21847420930862427,0.05528247356414795,-0.05528247356414795,0.21847420930862427,158.48561096191406,110.09127044677734)">
			<g transform="matrix(1,0,0,1,0,0)">
				<path class="st3" d="M33.6,505.5c10.3,9.7,10.9,25.9,1.3,36.2C25.3,552.1,9,552.6-1.3,543c-10.2-9.6-10.9-25.6-1.5-36
					c8.8-10.4,24.5-11.8,34.9-2.9C32.6,504.6,33.2,505,33.6,505.5z"/>
			</g>
		</g>
		
			<g transform="matrix(0.21847420930862427,0.05528247356414795,-0.05528247356414795,0.21847420930862427,161.2531280517578,56.73023986816406)">
			<g transform="matrix(1,0,0,1,0,0)">
				<path class="st3" d="M-16.9,720.8c8.5,3.8,18.5,2.1,25.1-4.5l133.1-130.5c1.7-1.8,1.7-4.6,0-6.3c-1.2-1.1-2.9-1.6-4.4-1.1
					l-165.5,56.8l-211.3-24.5c-2.9-0.3-5.5,1.9-5.8,4.8c-0.2,2.2,1,4.3,3,5.3L-16.9,720.8z"/>
			</g>
		</g>
		
			<g transform="matrix(0.23888204991817474,0.0043604872189462185,-0.0043604872189462185,0.23888204991817474,156.17440795898438,107.3932113647461)" class="st4">
			<g transform="matrix(1,0,0,1,0,0)" class="st5">
				<path class="st3" d="M-195,484.6c2.9,2.4,5.6,4.9,8.4,7.4c0.2,0.2,0.5,0.4,0.8,0.4c0.5,0,0.8-0.3,0.9-0.8c0.1-0.3,0.1-0.6,0-0.9
					c0-0.1,0-0.2,0-0.4c-1.5-6.4-10.3-16.6-14.5-14.8c-2.7,1.1-1.9,4.4-0.1,5.5c1.7,1.1,2.4,1.7,4.4,3.4"/>
			</g>
		</g>
		
			<g transform="matrix(0.21847420930862427,0.05528247356414795,-0.05528247356414795,0.21847420930862427,143.01318359375,106.12872314453125)">
			<g transform="matrix(1,0,0,1,0,0)">
				<path class="st3" d="M-54.6,531.3c-11.8,7.7-14.8,23-7.7,34.8c7.7,11.8,23,14.8,34.8,7.7c11.8-7.7,14.6-23.2,7.7-34.8
					c0-0.1-0.1-0.3-0.4-0.6c-7.1-11.4-21.5-14.8-32.7-8.3C-53.4,530.1-54,530.7-54.6,531.3z"/>
			</g>
		</g>
	</g>
</g>
</svg>
