<svg width="20" height="20" viewBox="0 0 20 20" fill="none" xmlns="http://www.w3.org/2000/svg">
<g clip-path="url(#clip0_1_2876)">
<path d="M19.9766 5.88005C19.9297 4.81735 19.7579 4.08681 19.5117 3.45372C19.2577 2.78175 18.867 2.18015 18.3552 1.68002C17.855 1.1721 17.2494 0.777417 16.5852 0.527447C15.9485 0.281305 15.2218 0.109396 14.1591 0.0625903C13.0884 0.011721 12.7486 0 10.0332 0C7.31783 0 6.97796 0.011721 5.9113 0.0586052C4.84864 0.105489 4.11806 0.277476 3.48517 0.523462C2.813 0.777417 2.2114 1.16812 1.71127 1.68002C1.20335 2.18011 0.808863 2.7857 0.558697 3.44989C0.312555 4.08681 0.140685 4.81344 0.0938403 5.87607C0.0430101 6.94671 0.03125 7.28658 0.03125 10.002C0.03125 12.7173 0.0430101 13.0572 0.0898552 14.1239C0.136739 15.1866 0.308726 15.9171 0.554907 16.5502C0.808863 17.2222 1.20335 17.8238 1.71127 18.3239C2.2114 18.8318 2.81699 19.2265 3.48118 19.4765C4.11802 19.7226 4.84465 19.8945 5.90751 19.9413C6.97397 19.9884 7.31404 19.9999 10.0294 19.9999C12.7448 19.9999 13.0847 19.9884 14.1513 19.9413C15.214 19.8945 15.9446 19.7226 16.5774 19.4765C17.2422 19.2195 17.8459 18.8264 18.3498 18.3225C18.8538 17.8186 19.2469 17.2149 19.5039 16.5502C19.7499 15.9133 19.9219 15.1865 19.9688 14.1239C20.0157 13.0572 20.0274 12.7173 20.0274 10.002C20.0274 7.28658 20.0234 6.94667 19.9766 5.88005ZM18.1755 14.0457C18.1325 15.0225 17.9684 15.5499 17.8317 15.9015C17.4956 16.7728 16.8041 17.4643 15.9328 17.8004C15.5812 17.9372 15.0499 18.1012 14.077 18.1441C13.0221 18.1911 12.7057 18.2027 10.0372 18.2027C7.36866 18.2027 7.04832 18.1911 5.99722 18.1441C5.02047 18.1012 4.49302 17.9372 4.14139 17.8004C3.70783 17.6402 3.31318 17.3862 2.9928 17.0541C2.66071 16.7298 2.40675 16.3391 2.24649 15.9055C2.10974 15.5539 1.94569 15.0225 1.90283 14.0497C1.85579 12.9948 1.84422 12.6783 1.84422 10.0097C1.84422 7.3412 1.85579 7.02086 1.90283 5.96995C1.94569 4.9932 2.10974 4.46575 2.24649 4.11412C2.40675 3.68037 2.66071 3.2858 2.99679 2.96534C3.32092 2.63325 3.71162 2.37929 4.14537 2.21922C4.497 2.08248 5.02844 1.91838 6.0012 1.87537C7.0561 1.82848 7.37264 1.81676 10.041 1.81676C12.7135 1.81676 13.0298 1.82848 14.0809 1.87537C15.0577 1.91842 15.5851 2.08244 15.9368 2.21918C16.3703 2.37929 16.765 2.63325 17.0854 2.96534C17.4175 3.28967 17.6714 3.68037 17.8317 4.11412C17.9684 4.46575 18.1325 4.99699 18.1755 5.96995C18.2224 7.02485 18.2341 7.3412 18.2341 10.0097C18.2341 12.6783 18.2224 12.9908 18.1755 14.0457Z" fill="white"/>
<path d="M10.0283 4.86348C7.19193 4.86348 4.89062 7.16463 4.89062 10.0012C4.89062 12.8378 7.19193 15.1389 10.0283 15.1389C12.8648 15.1389 15.1661 12.8378 15.1661 10.0012C15.1661 7.16463 12.8648 4.86348 10.0283 4.86348ZM10.0283 13.3339C8.18822 13.3339 6.69559 11.8415 6.69559 10.0012C6.69559 8.16092 8.18822 6.66852 10.0283 6.66852C11.8686 6.66852 13.361 8.16092 13.361 10.0012C13.361 11.8415 11.8686 13.3339 10.0283 13.3339ZM16.5688 4.66031C16.5688 5.32271 16.0317 5.85977 15.3692 5.85977C14.7068 5.85977 14.1697 5.32271 14.1697 4.66031C14.1697 3.99784 14.7068 3.46094 15.3692 3.46094C16.0317 3.46094 16.5688 3.9978 16.5688 4.66031Z" fill="white"/>
</g>
<defs>
<clipPath id="clip0_1_2876">
<rect width="20" height="20" fill="white"/>
</clipPath>
</defs>
</svg>
