<svg width="71" height="49" viewBox="0 0 71 49" fill="none" xmlns="http://www.w3.org/2000/svg">
<path d="M35.8643 42.8028C30.5858 41.435 23.8667 37.4052 18.0285 30.3368C27.5755 37.5425 33.0317 41.126 45.2041 41.9608C39.4341 40.7283 32.0896 37.483 28.6826 29.203C25.7089 21.9703 24.363 16.013 22.9516 11.45C22.5062 13.5087 21.3091 15.4982 18.7488 17.0058C18.7488 17.0058 19.8927 16.013 20.7516 13.757C21.3385 12.215 21.5119 10.5464 21.2545 8.91666C20.9971 7.28697 20.3179 5.75294 19.2843 4.46692C17.1791 1.84969 13.8452 0.540339 10.5233 1.0369C10.5211 1.03807 10.516 1.03807 10.5111 1.03938C-0.863084 2.74994 -5.98807 24.0388 10.6868 40.0027C20.9147 49.4779 33.8688 48.9158 42.7852 46.7267C53.3371 47.9082 63.8112 44.1752 71 34.3581C68.508 36.4754 56.1795 48.0665 35.8643 42.8028Z" fill="#F0B428"/>
</svg>
