<svg width="99" height="99" viewBox="0 0 99 99" fill="none" xmlns="http://www.w3.org/2000/svg">
<g clip-path="url(#clip0_1_2413)">
<path d="M33.2754 59.8876L33.2751 59.886L33.2748 59.8839L33.2746 59.8827L33.2745 59.882C33.2744 59.8819 33.2744 59.8819 33.2801 59.8809L35.2619 59.753C35.3128 57.8591 34.9394 56.2759 34.2828 54.9562C34.6471 55.0618 35.0189 55.1702 35.3984 55.2808C39.2867 56.4145 43.9831 57.7838 49.703 58.7597L49.7033 58.7597C54.7219 59.6145 59.06 58.6183 62.6526 56.8359C61.2351 58.1412 59.7949 59.247 58.2744 60.2338C54.599 62.6188 50.416 64.3354 44.8245 66.4733L45.3125 68.3988C54.5747 67.1754 61.7609 63.5419 65.8971 59.6248C74.1972 51.7642 77.138 43.2627 77.9993 36.5297C77.9385 43.1667 75.5201 49.3262 71.4234 54.4912L71.3128 54.6307L71.2571 54.7997C68.428 63.3854 62.2036 74.2723 49.2284 77.7907C38.3152 80.5531 29.2054 78.1061 23.4076 73.7803C17.5473 69.4078 15.2431 63.3167 17.2746 58.6398L17.2964 58.5896L17.2977 58.5856C18.5041 55.8567 21.0659 53.9678 24.034 53.6148C25.4992 53.4412 26.9843 53.6538 28.3419 54.2317C29.6995 54.8095 30.8824 55.7325 31.773 56.9088C32.4412 57.7915 32.821 58.565 33.0316 59.1023C33.1369 59.3712 33.2 59.5813 33.2356 59.7166C33.2534 59.7842 33.2643 59.8331 33.2702 59.8613C33.2731 59.8754 33.2747 59.8842 33.2754 59.8876ZM33.2754 59.8876L33.2755 59.8887L33.2756 59.8892C33.2756 59.889 33.2755 59.8884 33.2754 59.8876ZM17.2744 58.6397C17.2735 58.6418 17.273 58.6429 17.2732 58.6424C17.2733 58.6422 17.2737 58.6414 17.2743 58.6398L17.2744 58.6397Z" stroke="#F0B428" stroke-width="2"/>
</g>
<defs>
<clipPath id="clip0_1_2413">
<rect width="71" height="71" fill="white" transform="translate(0.575989 60.7667) rotate(-57.9685)"/>
</clipPath>
</defs>
</svg>
