<svg width="86" height="86" viewBox="0 0 86 86" fill="none" xmlns="http://www.w3.org/2000/svg">
<g clip-path="url(#clip0_1_2416)">
<path d="M55.0312 27.9388L55.032 27.9403L55.033 27.9422L55.0335 27.9433L55.0339 27.9439C55.0339 27.944 55.0339 27.944 55.0288 27.9467L53.1892 28.6948C53.7398 30.5076 54.5947 31.8915 55.6349 32.9358C55.2559 32.9509 54.8689 32.9656 54.4739 32.9806C50.4267 33.1347 45.5383 33.3208 39.8033 34.2038L39.803 34.2039C34.7716 34.98 30.9712 37.2969 28.1266 40.1239C29.0586 38.4373 30.0752 36.9328 31.2056 35.5159C33.9381 32.091 37.3636 29.1397 41.9922 25.3433L40.9203 23.671C32.5202 27.7605 26.8519 33.4801 24.1666 38.5041C18.7782 48.5861 18.6768 57.5813 19.9888 64.2411C17.9477 57.9255 18.2942 51.3173 20.5473 45.1219L20.6081 44.9546L20.6075 44.7766C20.5764 35.7369 23.0386 23.4403 34.2354 15.9993C43.7149 9.92761 53.1311 9.36821 59.9993 11.6386C66.9415 13.9335 71.0537 18.9835 70.6054 24.0627L70.6006 24.1173L70.6007 24.1215C70.3191 27.0918 68.4861 29.6939 65.782 30.9674C64.4469 31.5954 62.9707 31.8633 61.5 31.7445C60.0294 31.6256 58.6154 31.1241 57.3985 30.2897C56.4854 29.6636 55.8805 29.0499 55.5109 28.6068C55.3259 28.385 55.1995 28.2057 55.123 28.0885C55.0847 28.03 55.0589 27.987 55.0445 27.9622C55.0373 27.9498 55.0329 27.9419 55.0312 27.9388ZM55.0312 27.9388L55.0307 27.9379L55.0305 27.9375C55.0306 27.9377 55.0308 27.9381 55.0312 27.9388ZM70.6057 24.0627C70.6059 24.0605 70.606 24.0593 70.606 24.0598C70.6059 24.0601 70.6059 24.0609 70.6057 24.0626L70.6057 24.0627Z" stroke="#F0B428" stroke-width="2"/>
</g>
<defs>
<clipPath id="clip0_1_2416">
<rect width="71" height="71" fill="white" transform="translate(85.7745 16.7643) rotate(103.596)"/>
</clipPath>
</defs>
</svg>
