<svg width="64" height="64" viewBox="0 0 64 64" fill="none" xmlns="http://www.w3.org/2000/svg">
<path fill-rule="evenodd" clip-rule="evenodd" d="M15.5582 48.4435C15.1583 48.0435 14.9336 47.501 14.9336 46.9353C14.9336 46.3696 15.1583 45.8271 15.5582 45.427L43.9187 17.0665H25.6019C25.0361 17.0665 24.4935 16.8417 24.0934 16.4416C23.6934 16.0416 23.4686 15.4989 23.4686 14.9331C23.4686 14.3673 23.6934 13.8247 24.0934 13.4246C24.4935 13.0246 25.0361 12.7998 25.6019 12.7998H49.0686C49.6344 12.7998 50.177 13.0246 50.5771 13.4246C50.9772 13.8247 51.2019 14.3673 51.2019 14.9331V38.3998C51.2019 38.9656 50.9772 39.5082 50.5771 39.9083C50.177 40.3084 49.6344 40.5331 49.0686 40.5331C48.5028 40.5331 47.9602 40.3084 47.5601 39.9083C47.16 39.5082 46.9353 38.9656 46.9353 38.3998V20.083L18.579 48.4435C18.3808 48.6422 18.1454 48.7998 17.8862 48.9074C17.6271 49.0149 17.3492 49.0703 17.0686 49.0703C16.788 49.0703 16.5101 49.0149 16.251 48.9074C15.9918 48.7998 15.7564 48.6422 15.5582 48.4435Z" fill="#676767"/>
</svg>
