<svg width="883" height="883" viewBox="0 0 883 883" fill="none" xmlns="http://www.w3.org/2000/svg">
<circle cx="441.5" cy="441.5" r="441.5" fill="white"/>
<path d="M267.781 262.006C284.976 275.976 291.427 274.91 323.715 272.756L628.118 254.478C634.572 254.478 629.204 248.037 627.054 246.966L576.496 210.42C566.811 202.899 553.903 194.287 529.17 196.441L234.417 217.939C223.668 219.005 221.521 224.38 225.802 228.688L267.781 262.006ZM286.057 332.947V653.232C286.057 670.443 294.659 676.885 314.019 675.82L648.557 656.463C667.927 655.398 670.085 643.555 670.085 629.574V311.439C670.085 297.479 664.716 289.95 652.857 291.025L303.261 311.439C290.36 312.523 286.057 318.977 286.057 332.947ZM616.312 350.127C618.458 359.811 616.312 369.485 606.611 370.573L590.493 373.784V610.237C576.496 617.76 563.592 622.06 552.839 622.06C535.621 622.06 531.309 616.683 518.412 600.569L412.978 435.05V595.196L446.341 602.723C446.341 602.723 446.341 622.06 419.424 622.06L345.218 626.364C343.062 622.06 345.218 611.323 352.745 609.169L372.109 603.804V392.063L345.223 389.908C343.067 380.225 348.437 366.265 363.507 365.181L443.113 359.815L552.839 527.488V379.159L524.863 375.948C522.715 364.111 531.309 355.515 542.067 354.449L616.312 350.127ZM209.669 188.921L516.26 166.343C553.912 163.114 563.596 165.277 587.262 182.467L685.126 251.253C701.277 263.081 706.658 266.302 706.658 279.196V656.463C706.658 680.103 698.046 694.088 667.931 696.226L311.89 717.729C289.284 718.806 278.526 715.583 266.688 700.526L194.617 607.019C181.702 589.807 176.332 576.928 176.332 561.862V226.526C176.332 207.19 184.947 191.062 209.669 188.921Z" fill="black"/>
</svg>
