<svg id="Layer_3" height="512" viewBox="0 0 64 64" width="512" xmlns="http://www.w3.org/2000/svg" data-name="Layer 3"><rect fill="#d4483f" height="46" rx="4" width="54" x="2" y="2"/><path d="m2 44a4 4 0 0 0 4 4h46a4 4 0 0 0 4-4v-30h-54z" fill="#c7e2fb"/><rect fill="#d4483f" height="26" rx="4" width="36" x="11" y="18"/><path d="m15 18a4 4 0 0 0 -4 4v17h28a3 3 0 0 0 3-3v-18z" fill="#dd6d65"/><path d="m15 38h28v2h-28z" fill="#b3bec4"/><rect fill="#e0e0e0" height="24" rx="3" width="32" x="30" y="38"/><g fill="#f5f5f5"><path d="m33 38a3 3 0 0 0 -3 3v17h24a3 3 0 0 0 3-3v-17z"/><circle cx="21" cy="39" r="2"/><circle cx="29" cy="28" r="6"/></g><path d="m27 25v6l5-3z" fill="#d4483f"/><circle cx="50" cy="8" fill="#f5f5f5" r="2"/><circle cx="42" cy="8" fill="#f5f5f5" r="2"/><circle cx="40" cy="50" fill="#4596ec" r="2"/><circle cx="52" cy="44" fill="#4596ec" r="2"/><circle cx="52" cy="56" fill="#4596ec" r="2"/><path d="m52 53a2.988 2.988 0 0 0 -2.1.862l-7.007-3.115a2.685 2.685 0 0 0 0-1.494l7.007-3.115a3 3 0 1 0 -.9-2.138 2.858 2.858 0 0 0 .034.335l-7.285 3.238a3 3 0 1 0 0 4.854l7.285 3.238a2.858 2.858 0 0 0 -.034.335 3 3 0 1 0 3-3zm0-10a1 1 0 1 1 -1 1 1 1 0 0 1 1-1zm-13 7a1 1 0 1 1 1 1 1 1 0 0 1 -1-1zm13 7a1 1 0 1 1 1-1 1 1 0 0 1 -1 1z" fill="#3477cc"/></svg>