<svg width="250" height="58" viewBox="0 0 250 58" fill="none" xmlns="http://www.w3.org/2000/svg">
<path d="M3.0089 3.04951C-2.13068 3.78374 9.00752 9.46663 12.0105 12.6752C12.5656 13.1331 12.9403 13.7732 13.0678 14.4814C13.0678 15.5167 11.9151 16.317 10.7623 16.8603C9.38597 17.4989 7.94632 17.9911 6.4671 18.3287C5.75135 18.416 5.0654 18.6672 4.46266 19.063C3.55957 19.8559 4.08087 21.0747 4.74901 21.9999C5.8944 23.5711 7.34818 25.0249 8.25127 26.6916C9.15437 28.3583 9.42603 30.3627 8.19988 31.8899C6.97372 33.4171 4.64622 34.0926 2.55368 34.9296C1.81945 35.2159 1.00446 35.5831 0.754821 36.1925C0.505184 36.8019 0.923693 37.4847 1.33486 38.0721L8.2733 47.8006C5.37307 49.7363 2.96862 52.3268 1.25409 55.3631L5.65945 56.2148C5.65945 56.2148 200.846 58.1678 240.23 56.2148C241.405 56.156 242.587 56.1487 243.762 56.156C244.013 54.9032 243.931 53.6063 243.524 52.3952C243.117 51.184 242.398 50.1009 241.441 49.2543C241.186 49.0642 240.983 48.8113 240.854 48.5201C240.729 48.0796 241.082 47.639 241.471 47.2939C243.446 45.5538 246.86 44.7241 247.961 42.5875C248.798 40.9649 247.961 39.0632 246.412 37.7563C244.863 36.4494 242.792 35.6197 240.759 34.8194C239.481 34.3128 238.013 33.5199 238.24 32.4479C238.372 31.8532 239.011 31.4053 239.65 31.0382C242.675 29.2687 246.412 28.0278 248.497 25.6049C248.753 25.3576 248.957 25.0624 249.098 24.7361C249.239 24.4097 249.314 24.0588 249.32 23.7033C249.232 22.7414 248.27 21.9631 247.308 21.3317C244.07 19.1804 240.259 17.5798 236.529 15.9499C236.149 15.8333 235.816 15.5962 235.582 15.2743C235.384 14.8558 235.729 14.408 236.067 14.0408C239.386 10.4945 244.143 7.51358 245.612 3.30647C242.499 2.67371 239.308 2.51286 236.148 2.82925C236.148 2.82925 48.1932 -3.33091 3.0089 3.04951Z" fill="#FAB086"/>
</svg>
